<svg xmlns="http://www.w3.org/2000/svg" viewBox="0 0 720 560" role="img" aria-labelledby="title desc" color="#000">
<title id="title">Safary — dos perfiles</title><desc id="desc">Perfil de Safary en primer plano y perfil de Sebastián detrás, ambos mirando a la izquierda.</desc>
<g fill="currentColor">
<!-- Sebastián: perfil humano independiente detrás -->
<path d="M477 48c-74 0-134 60-134 134 0 39 17 76 47 101l-8 57c-65 20-111 69-124 140h310c-16-68-58-114-121-136l-7-58c37-25 60-67 60-112 0-70-55-126-123-126z
M366 148c8-31 34-55 66-61 27-5 55 4 74 24-22-8-44-6-61 5-14 9-23 22-26 37l-24 7 12 19-13 16 17 9-2 22c-10 12-25 20-42 21-18-19-28-44-28-71 0-10 1-19 4-28 8 5 15 5 23 0z"/>
<!-- canal blanco entre perfiles -->
<path d="M338 212c30 24 48 57 53 99-28 7-52 20-72 39-13-33-33-58-60-76 21-28 47-49 79-62z" fill="#fff"/>
<!-- Safary: cabeza y pecho robustos en primer plano -->
<path d="M257 174 171 91l14 116c-51 10-92 40-120 87L21 368l81 28 110-5c46-3 86-27 109-67 20-36 22-79 5-116-13-29-37-52-69-67z
M211 387c72 6 125 39 158 93H87c25-48 65-80 124-93z"/>
<!-- oreja interior y expresión mínima -->
<path d="M188 207 181 125l59 68z" fill="#fff"/>
<circle cx="177" cy="278" r="9" fill="#fff"/>
<path d="M65 346c35 0 64 10 90 29" fill="none" stroke="#fff" stroke-width="13" stroke-linecap="round"/>
<!-- nariz -->
<path d="M20 353c16-12 34-15 52-8l-13 25-38-2z"/>
</g></svg>
