<svg xmlns="http://www.w3.org/2000/svg" viewBox="0 0 1600 1000" role="img" aria-labelledby="t" color="#000"><title id="t">Sistema de marca Safary</title><rect width="1600" height="1000" fill="#f4f4f2"/><text x="90" y="100" font-family="Arial" font-size="28" font-weight="700" letter-spacing="8">SISTEMA DE MARCA</text><text x="90" y="175" font-family="Arial Black,Arial" font-size="74">SAFARY</text><text x="90" y="225" font-family="Arial" font-size="24" fill="#555">Sebastián + Safary · símbolo de lealtad, compañía y dirección</text><rect x="90" y="285" width="670" height="360" rx="24" fill="#fff"/><image href="safary-emblem.svg" x="120" y="315" width="610" height="300"/><rect x="800" y="285" width="300" height="360" rx="24" fill="#fff"/><image href="safary-symbol.svg" x="835" y="315" width="230" height="300"/><rect x="1140" y="285" width="370" height="360" rx="24" fill="#111"/><image href="safary-symbol-white.png" x="1190" y="325" width="270" height="270"/><text x="90" y="710" font-family="Arial" font-size="24" font-weight="700">EMBLEMA COMPLETO</text><text x="800" y="710" font-family="Arial" font-size="24" font-weight="700">ISOTIPO COMPACTO</text><text x="1140" y="710" font-family="Arial" font-size="24" font-weight="700">VERSIÓN INVERSA</text><text x="90" y="790" font-family="Arial" font-size="21" fill="#444">Uso: portadas, documentos y señalética</text><text x="800" y="790" font-family="Arial" font-size="21" fill="#444">Uso: favicon, app y tamaños ≤ 64 px</text><text x="1140" y="790" font-family="Arial" font-size="21" fill="#444">Uso: fondos oscuros</text><text x="90" y="900" font-family="Arial" font-size="22" font-weight="700">COLORES</text><circle cx="220" cy="892" r="34" fill="#000"/><text x="270" y="900" font-family="Arial" font-size="21">Negro #000000</text><circle cx="500" cy="892" r="34" fill="#fff" stroke="#ccc"/><text x="550" y="900" font-family="Arial" font-size="21">Blanco #FFFFFF</text><text x="950" y="900" font-family="Arial" font-size="21" fill="#555">Zona de seguridad mínima: altura de la oreja de Safary</text></svg>
