<?xml version="1.0" encoding="UTF-8"?>
<!-- Generator: visioncortex VTracer 0.6.12 -->
<svg version="1.1" xmlns="http://www.w3.org/2000/svg" width="568" height="582">
<path d="M0 0 C6.973 6.822 13.404 13.786 19.379 21.508 C20.184 22.523 20.99 23.537 21.797 24.551 C66.559 81.228 86.861 155.541 79.254 227.195 C73.35 275.772 56.599 321.081 27.379 360.508 C27.151 360.815 27.151 360.815 26 362.371 C18.781 372.038 10.756 380.837 2.379 389.508 C1.797 390.117 1.215 390.726 0.616 391.354 C-7.08 399.391 -15.062 406.575 -23.967 413.246 C-25.513 414.425 -27.016 415.641 -28.512 416.883 C-60.709 443.314 -102.853 460.488 -143.621 467.508 C-144.507 467.669 -145.393 467.829 -146.306 467.995 C-197.608 477 -253.034 468.33 -299.621 445.508 C-300.037 445.305 -300.037 445.305 -302.139 444.278 C-325.697 432.641 -347.301 417.778 -366.369 399.679 C-368.179 397.986 -370.054 396.372 -371.934 394.758 C-378.372 389.158 -384.131 383.032 -389.621 376.508 C-390.088 375.954 -390.555 375.401 -391.037 374.831 C-398.914 365.457 -406.102 355.872 -412.621 345.508 C-412.806 345.218 -412.806 345.218 -413.744 343.75 C-452.51 282.79 -464.063 207.856 -449.621 137.508 C-447.889 129.766 -445.837 122.124 -443.621 114.508 C-443.397 113.733 -443.173 112.958 -442.943 112.16 C-433.57 80.409 -417.356 50.23 -396.621 24.508 C-396.033 23.747 -395.445 22.987 -394.84 22.203 C-383.334 7.444 -370.035 -6.682 -355.268 -18.196 C-353.384 -19.679 -351.527 -21.191 -349.668 -22.703 C-310.084 -54.586 -261.308 -74.222 -210.621 -78.492 C-209.875 -78.555 -209.129 -78.619 -208.36 -78.684 C-129.006 -84.94 -56.445 -54.648 0 0 Z M-322.621 -30.492 C-323.285 -30.065 -323.949 -29.637 -324.633 -29.197 C-383.373 9.07 -424.742 69.49 -439.562 138.055 C-442.839 154.336 -445.263 170.891 -445.621 187.508 C-445.642 188.179 -445.662 188.85 -445.683 189.542 C-447.019 236.633 -435.964 283.062 -413.621 324.508 C-413.19 325.316 -412.758 326.124 -412.313 326.956 C-405.813 339.029 -398.659 350.097 -390.034 360.757 C-388.807 362.277 -387.602 363.811 -386.41 365.359 C-378.621 375.374 -369.845 384.802 -360.621 393.508 C-360.185 394.097 -359.749 394.686 -359.299 395.293 C-356.065 399.042 -353.097 400.636 -348.215 401.198 C-343.733 401.515 -339.266 401.537 -334.775 401.475 C-331.928 401.445 -329.09 401.496 -326.244 401.553 C-324.428 401.552 -322.613 401.546 -320.797 401.535 C-319.951 401.554 -319.105 401.574 -318.233 401.594 C-315.781 401.526 -313.916 401.384 -311.621 400.508 C-309.899 398.597 -308.78 396.748 -307.632 394.451 C-305.185 389.748 -300.658 387.893 -295.934 386.07 C-277.607 378.668 -277.607 378.668 -273.438 370.066 C-268.742 358.644 -270.792 348.371 -273.499 336.77 C-276.615 323.366 -278.854 310.274 -279.621 296.508 C-275.84 296.347 -275.84 296.347 -273.867 297.793 C-273.27 298.379 -272.674 298.966 -272.059 299.57 C-268.055 303.296 -263.763 306.003 -259.039 308.734 C-251.111 314.549 -249.451 327.073 -247.996 336.258 C-246.646 345.445 -246.016 354.684 -245.434 363.945 C-245.391 364.621 -245.348 365.296 -245.304 365.992 C-243.861 389.284 -243.861 389.284 -245.621 400.508 C-244.961 400.178 -244.301 399.848 -243.621 399.508 C-242.56 395.042 -242.471 390.679 -242.508 386.121 C-242.511 385.426 -242.514 384.73 -242.518 384.014 C-242.583 376.56 -242.952 369.132 -243.434 361.695 C-243.478 361.002 -243.523 360.309 -243.568 359.595 C-244.299 348.459 -245.141 337.415 -247.621 326.508 C-247.796 325.711 -247.97 324.915 -248.15 324.095 C-251.311 310.472 -251.311 310.472 -256.152 306.355 C-258.131 305.31 -260.144 304.33 -262.184 303.41 C-266.76 301.169 -270.052 297.505 -273.559 293.883 C-274.185 293.236 -274.811 292.589 -275.457 291.923 C-277.184 290.124 -278.903 288.316 -280.621 286.508 C-283.641 283.359 -286.747 280.561 -290.246 277.945 C-296.824 272.764 -302.746 266.598 -307.823 259.929 C-310.843 256.006 -313.752 254.015 -318.246 252.008 C-319.486 251.419 -320.726 250.83 -321.965 250.238 C-322.578 249.95 -323.192 249.662 -323.824 249.365 C-326.505 248.086 -329.125 246.719 -331.746 245.32 C-332.594 244.873 -333.442 244.426 -334.316 243.965 C-336.621 242.508 -336.621 242.508 -338.785 240.34 C-340.621 238.508 -340.621 238.508 -342.871 238.383 C-349.033 240.903 -353.704 245.564 -358.496 250.07 C-366.373 257.179 -372.641 260.156 -383.348 259.684 C-384.098 259.626 -384.848 259.568 -385.621 259.508 C-385.863 260.062 -386.106 260.616 -386.355 261.188 C-386.691 261.912 -387.026 262.636 -387.371 263.383 C-387.534 263.742 -387.534 263.742 -388.355 265.562 C-389.84 267.845 -391.125 268.512 -393.621 269.508 C-395.059 268.82 -395.059 268.82 -396.621 267.508 C-398.538 261.201 -396.417 254.557 -393.809 248.676 C-390.925 244.002 -386.561 240.275 -382.621 236.508 C-383.281 236.178 -383.941 235.848 -384.621 235.508 C-386.215 236.066 -386.215 236.066 -388.121 236.945 C-393.616 239.096 -399.103 239.63 -404.789 237.816 C-409.811 235.495 -416.351 231.83 -418.402 226.465 C-418.621 224.508 -418.621 224.508 -417.184 222.195 C-413.536 218.116 -409.223 214.699 -405.048 211.183 C-403.903 210.218 -402.758 209.253 -401.613 208.288 C-400.474 207.328 -399.333 206.371 -398.19 205.416 C-396.655 204.126 -395.137 202.819 -393.621 201.508 C-392.854 200.862 -392.087 200.216 -391.297 199.551 C-389.117 196.893 -388.986 194.896 -388.559 191.508 C-386.656 180.971 -378.259 174.314 -370.121 168.07 C-357.167 159.176 -341.431 153.667 -325.621 155.508 C-321.707 156.363 -317.954 157.732 -314.164 159.016 C-269.228 174.131 -213.309 181.62 -166.996 170.508 C-166.376 170.362 -165.756 170.216 -165.117 170.066 C-153.052 167.225 -141.113 163.951 -129.165 160.661 C-92.74 150.658 -55.174 145.187 -20.803 164.683 C-13.498 168.985 -6.92 173.835 -0.621 179.508 C-0.19 179.89 0.242 180.273 0.687 180.667 C15.227 193.694 21.901 210.313 24.976 229.251 C28.401 250.081 34.11 271.87 50.566 286.445 C52.379 287.508 52.379 287.508 55.379 287.508 C64.461 258.123 70.6 228.798 70.629 197.945 C70.63 197.281 70.63 196.617 70.631 195.932 C70.595 173.409 67.738 151.403 62.379 129.508 C62.271 129.067 62.271 129.067 61.728 126.836 C52.53 90.101 34.798 56.114 11.379 26.508 C10.959 25.971 10.539 25.433 10.106 24.88 C-1.903 9.644 -16.281 -4.951 -32.012 -16.323 C-33.61 -17.484 -35.178 -18.677 -36.746 -19.879 C-69.218 -44.376 -107.714 -59.639 -147.621 -66.492 C-148.325 -66.617 -149.029 -66.741 -149.754 -66.87 C-208.37 -76.881 -272.921 -62.496 -322.621 -30.492 Z M2.379 261.508 C2.12 262.315 1.861 263.122 1.594 263.953 C-2.288 275.335 -7.676 285.875 -13.239 296.506 C-24.444 318.138 -25.796 338.308 -18.871 361.57 C-18.608 362.366 -18.345 363.161 -18.074 363.98 C-16.896 370.553 -19.337 375.696 -22.309 381.383 C-22.664 382.081 -23.02 382.779 -23.387 383.499 C-25.826 388.206 -28.473 392.613 -31.59 396.906 C-32.621 398.508 -32.621 398.508 -32.621 400.508 C-29.052 401.378 -26.2 401.379 -22.621 400.508 C-18.324 397.84 -14.882 393.955 -11.398 390.334 C-9.583 388.469 -7.723 386.663 -5.844 384.863 C1.824 377.471 8.742 369.802 15.082 361.245 C16.367 359.524 17.683 357.831 19.008 356.141 C24.962 348.426 30.075 340.276 35.004 331.883 C35.316 331.355 35.628 330.828 35.95 330.285 C36.844 328.768 37.725 327.243 38.605 325.719 C39.117 324.835 39.628 323.951 40.155 323.041 C41.382 320.502 41.962 318.285 42.379 315.508 C41.629 315.24 40.878 314.972 40.105 314.695 C26.468 309.474 16.11 300.521 9.566 287.258 C6.096 279.044 4.809 270.263 3.379 261.508 C3.049 261.508 2.719 261.508 2.379 261.508 Z M-136.176 297.863 C-147.743 305.515 -159.326 311.7 -172.641 315.746 C-173.509 316.015 -174.378 316.284 -175.273 316.561 C-177.388 317.215 -179.504 317.864 -181.621 318.508 C-182.148 346.146 -181.097 373.077 -177.621 400.508 C-177.291 400.508 -176.961 400.508 -176.621 400.508 C-176.411 394.652 -176.832 388.967 -177.479 383.148 C-179.13 368.291 -179.931 353.585 -179.934 338.633 C-179.937 337.788 -179.94 336.944 -179.943 336.074 C-179.949 333.679 -179.939 331.285 -179.922 328.891 C-179.923 328.171 -179.923 327.452 -179.924 326.711 C-179.853 321.74 -179.853 321.74 -177.621 319.508 C-175.697 318.959 -173.756 318.47 -171.809 318.008 C-154.897 313.447 -140.311 304.289 -125.905 294.648 C-119.952 290.666 -113.998 286.778 -107.684 283.383 C-107.093 283.058 -106.503 282.734 -105.895 282.4 C-104.281 281.562 -104.281 281.562 -101.621 280.508 C-100.631 280.838 -99.641 281.168 -98.621 281.508 C-99.347 294.497 -100.514 307.055 -106.496 318.758 C-111.348 328.333 -113.484 338.038 -115.621 348.508 C-115.896 349.846 -116.17 351.184 -116.445 352.521 C-116.591 353.23 -116.736 353.938 -116.886 354.667 C-117.496 357.627 -118.113 360.585 -118.728 363.544 C-119.174 365.71 -119.605 367.879 -120.035 370.049 C-123.668 388.017 -123.668 388.017 -130.309 394.945 C-133.566 398.398 -133.566 398.398 -134.621 400.508 C-129.623 400.707 -124.626 400.851 -119.625 400.947 C-117.926 400.987 -116.228 401.042 -114.53 401.111 C-100.349 401.677 -100.349 401.677 -96.008 398.74 C-94.148 396.562 -94.148 396.562 -92.785 394.375 C-91.621 392.508 -91.621 392.508 -88.746 391.133 C-86.973 390.778 -85.2 390.43 -83.422 390.102 C-82.642 389.947 -81.862 389.792 -81.059 389.633 C-80.697 389.572 -80.697 389.572 -78.867 389.266 C-72.491 387.114 -69.926 382.146 -67.059 376.508 C-66.668 375.754 -66.277 375 -65.875 374.223 C-59.461 361.564 -55.03 347.933 -58.996 333.82 C-61.116 327.386 -63.876 321.259 -66.621 315.07 C-72.669 301.428 -76.104 288.19 -78.621 273.508 C-100.063 272.852 -119.06 286.499 -136.176 297.863 Z M-216.621 344.508 C-217.434 350.816 -217.802 357.041 -217.902 363.398 C-217.921 364.306 -217.939 365.214 -217.958 366.149 C-218.036 369.993 -218.105 373.837 -218.173 377.681 C-218.225 380.503 -218.282 383.326 -218.34 386.148 C-218.353 387.013 -218.367 387.878 -218.381 388.769 C-218.389 389.174 -218.389 389.174 -218.432 391.228 C-218.444 391.935 -218.457 392.643 -218.47 393.373 C-218.621 395.508 -218.621 395.508 -219.621 400.508 C-214.341 400.508 -209.061 400.508 -203.621 400.508 C-206.031 386.784 -208.566 373.125 -211.809 359.57 C-212.058 358.518 -212.308 357.465 -212.565 356.381 C-213.601 352.141 -214.618 348.393 -216.621 344.508 Z M-54.621 391.508 C-55.794 392.627 -56.959 393.753 -58.121 394.883 C-58.771 395.509 -59.42 396.136 -60.09 396.781 C-61.621 398.508 -61.621 398.508 -61.621 400.508 C-59.971 400.508 -58.321 400.508 -56.621 400.508 C-55.059 397.695 -55.059 397.695 -53.621 394.508 C-53.951 393.518 -54.281 392.528 -54.621 391.508 Z " fill="#2C001E" transform="translate(471.62109375,95.4921875)"/>
<path d="M0 0 C2.112 1.064 3.989 2.286 5.93 3.637 C8.079 5.052 10.197 6.056 12.562 7.062 C15.364 8.27 18.12 9.499 20.812 10.938 C21.335 11.215 21.857 11.492 22.395 11.777 C27.475 15.647 28.806 19.983 30 25.938 C30.842 30.113 31.583 33.693 34.062 37.219 C36.976 41.402 37.324 44.972 37 50 C36.272 52.85 35.436 55.593 34.488 58.373 C33.075 62.541 32.443 65.64 33 70 C33.351 70.701 33.701 71.403 34.062 72.125 C35.386 74.771 34.773 76.179 34 79 C31.111 84.339 27.473 88.921 23 93 C27.482 98.57 33.123 100.356 39.688 102.812 C41.378 103.467 43.065 104.128 44.753 104.789 C46.439 105.449 48.126 106.105 49.814 106.76 C76.271 117.059 76.271 117.059 82.688 129.812 C92.148 153.068 92.148 153.068 91 161 C88.694 163.306 88.022 163.33 84.891 163.719 C84.011 163.841 83.13 163.963 82.224 164.089 C81.242 164.225 80.261 164.36 79.25 164.5 C68.037 166.204 57.195 168.868 46.25 171.812 C45.437 172.031 44.624 172.249 43.786 172.474 C40.524 173.351 37.262 174.231 34.001 175.114 C27.078 176.987 20.141 178.804 13.187 180.558 C11.512 180.981 9.84 181.412 8.167 181.843 C-4.656 185.069 -16.959 186.376 -30.125 186.312 C-30.856 186.312 -31.586 186.311 -32.339 186.31 C-42.726 186.283 -52.991 185.796 -63.312 184.625 C-64.426 184.499 -65.539 184.373 -66.686 184.243 C-78.206 182.794 -78.206 182.794 -81 180 C-81.247 177.348 -81.43 174.721 -81.562 172.062 C-81.603 171.261 -81.643 170.459 -81.685 169.633 C-81.803 167.089 -81.905 164.545 -82 162 C-82.03 161.19 -82.06 160.381 -82.091 159.546 C-82.476 147.54 -82.721 137.348 -74.207 127.984 C-68.421 122.782 -62.143 118.744 -55.312 115.062 C-54.535 114.638 -53.758 114.213 -52.957 113.776 C-51.388 112.92 -49.817 112.067 -48.245 111.216 C-46.161 110.087 -44.086 108.947 -42.012 107.801 C-40.841 107.158 -39.671 106.516 -38.5 105.875 C-37.967 105.58 -37.433 105.285 -36.884 104.981 C-33.23 103 -33.23 103 -31 103 C-31.277 102.573 -31.553 102.146 -31.839 101.706 C-45.64 80.305 -45.64 80.305 -46.875 69.312 C-47.572 63.51 -49.239 60.588 -53.441 56.586 C-55.971 54.012 -56.138 51.44 -56.125 48 C-56.128 47.319 -56.13 46.639 -56.133 45.938 C-56 44 -56 44 -55 41 C-55.006 38.895 -55.052 36.791 -55.125 34.688 C-55.187 29.584 -55.135 26.147 -52 22 C-49.766 19.868 -47.405 17.934 -45 16 C-43.058 14.176 -41.276 12.342 -39.602 10.27 C-39.348 9.957 -39.348 9.957 -38.062 8.375 C-37.6 7.785 -37.137 7.194 -36.66 6.586 C-34.527 4.548 -32.846 3.791 -30 3 C-26.984 3.164 -26.984 3.164 -23.75 3.625 C-18.116 4.19 -14.99 3.525 -10.047 0.945 C-6.645 -0.626 -3.64 -0.848 0 0 Z " fill="#2C001E" transform="translate(295,83)"/>
</svg>
